<svg width="864" height="241" xmlns="http://www.w3.org/2000/svg" preserveAspectRatio="xMidYMid meet" version="1.0">

 <g>
  <title>Layer 1</title>
  <path fill="#003250" id="svg_2" d="m114.5,5.2c-1.1,0.6 -3.6,2.8 -5.5,4.9l-3.5,3.9l-11.5,-3.8c-6.3,-2.1 -13.4,-3.9 -15.7,-4c-9.8,-0.6 -21.2,5.4 -27.2,14.2c-3,4.3 -4.5,8.6 -25.4,73.6c-5.2,16.2 -12.5,38.9 -16.2,50.4c-6.1,18.7 -6.7,21.4 -6.2,26.7c1,11 7.8,21.8 18.2,28.8c6.1,4.2 8.2,4.9 92,31.8c7.7,2.4 16.3,5.2 19,6.1c2.8,0.9 8.2,1.6 12.2,1.6c11.5,-0.1 22.3,-6.5 27.1,-16.1c1.9,-3.8 3.1,-7.4 17.7,-52.8c4.2,-13.2 8.5,-26.5 9.5,-29.5c14.5,-43.1 18.4,-56.7 18.4,-63.5c-0.1,-8.6 -3,-16.5 -8.4,-23.4c-5.4,-6.8 -10.9,-10.3 -22.2,-14c-5.3,-1.8 -10.1,-3.8 -10.6,-4.4c-0.4,-0.7 -1.6,-3.2 -2.5,-5.7c-0.9,-2.5 -3.6,-6.7 -5.9,-9.2c-4.2,-4.6 -4.8,-4.9 -23.1,-10.7c-19,-6.2 -25.9,-7.3 -30.2,-4.9zm25.4,18.4c9.7,3.1 18.2,6.1 18.9,6.8c2,1.9 -5.4,25.3 -8.2,26.2c-2.9,0.9 -37.4,-10.5 -37.9,-12.6c-0.2,-0.8 1.2,-6.5 3.1,-12.5c3.1,-10.2 4.6,-13.5 6,-13.5c0.3,0 8.4,2.5 18.1,5.6zm-47.4,-0.9c4.4,1.4 8.4,2.9 8.9,3.3c0.4,0.5 0.1,3 -0.7,5.7c-2.7,8.5 -2.8,11.2 -0.8,15.7c1,2.2 2.7,4.9 3.9,5.9c1.7,1.6 29.9,11.6 41.5,14.8c4.9,1.3 11.1,-0.4 14.7,-3.9c1.5,-1.5 3.7,-5.8 4.9,-9.5c1.2,-3.7 2.6,-6.9 2.9,-7.1c0.4,-0.2 5.5,1.2 11.5,3.1c12,3.8 16.3,6.8 19.6,13.7c1.2,2.3 2.1,5.7 2.1,7.6c0,3.1 -12.2,42.7 -24.5,79.5c-0.8,2.2 -5.5,16.8 -10.5,32.5c-9.9,30.6 -10.9,32.6 -18.5,36.1c-8.2,3.8 -4.5,4.7 -91.5,-23.6c-10.7,-3.5 -21.8,-7.1 -24.7,-8c-7.1,-2.2 -12.7,-8.3 -14.3,-15.6l-1.2,-5.4l17.7,-55c29.9,-93.1 27,-85.2 33.2,-89.5c6.7,-4.6 12.5,-4.7 25.8,-0.3z"/>
  <path fill="#003250" id="svg_3" d="m83,58.9c0,0.6 2.1,5.3 4.7,10.5l4.7,9.4l-4.2,6.3c-2.3,3.4 -4.2,6.6 -4.2,7.1c0,0.7 -16.7,0.1 -18,-0.7c-0.3,-0.2 -2.5,-4.4 -5,-9.4c-2.5,-5 -5,-9 -5.6,-9.1c-3.3,-0.1 -5.5,14 -3.4,21.7c2.1,7.4 5.5,12 12.2,16.3c5.2,3.4 7.9,4.4 14.7,5.3c1.6,0.2 2.3,1.7 27.1,50.4c10.6,20.8 20.1,38.7 21.2,39.9c4.9,5.5 14.4,4.9 19.7,-1.2c5.9,-6.7 5.9,-6.9 -19.4,-56.8c-12.4,-24.4 -22.5,-45.2 -22.5,-46c0,-0.9 0.8,-2.8 1.7,-4.2c1,-1.6 1.8,-5.4 2.1,-10.3c0.4,-7 0.2,-8.4 -2.2,-13.2c-3.4,-6.7 -7.7,-11.3 -13,-13.7c-5.4,-2.6 -10.6,-3.7 -10.6,-2.3zm58.4,137.3c2.1,3 2,4.3 -0.6,6.8c-2.6,2.4 -5.1,2.6 -7.2,0.4c-1.9,-1.8 -2.1,-6.5 -0.4,-8.2c2,-2 6.5,-1.4 8.2,1z"/>
  <path fill="#002236" id="svg_4" d="m232.6,89.7c-1.1,15.6 -4.6,56.1 -5.5,63.8c-0.5,3.8 -0.7,7.3 -0.4,7.7c0.2,0.5 5.3,0.8 11.3,0.8l10.8,0l0.6,-6.8c0.3,-3.7 0.8,-12.1 1.1,-18.7c0.3,-6.6 0.8,-14.7 1.2,-18c0.7,-7.2 0.5,-7.8 6.3,18c2.3,9.9 4.6,19.7 5.1,21.8l1,3.8l11.6,-0.3l11.6,-0.3l5.4,-16c2.9,-8.8 6.6,-21 8.1,-27l2.7,-11l0.3,6.5c0.1,3.6 -0.1,15.5 -0.6,26.5c-0.5,11 -0.7,20.3 -0.5,20.7c0.2,0.5 5.5,0.8 11.7,0.8l11.4,0l0.6,-19.8c0.3,-10.8 0.9,-29.3 1.2,-41l0.6,-21.2l-17.4,0l-17.4,0l-2.6,7.7c-1.4,4.3 -4.5,13.2 -6.7,19.7c-2.3,6.6 -4.4,13.7 -4.7,15.8c-0.8,5 -2,4 -2.6,-2.1c-0.3,-2.7 -2.5,-13 -4.9,-23l-4.4,-18.1l-17.1,0l-17.2,0l-0.6,9.7z"/>
  <path fill="#002236" id="svg_5" d="m512.60001,98.7c-0.8,21.5 -2.3,49.1 -3.2,57.6l-0.6,5.8l14.3,-0.3l14.4,-0.3l0.5,-16l0.5,-16l14.5,0l14.5,0l0,7.5c0,4.1 -0.2,11.3 -0.5,16l-0.5,8.5l14.3,0.3l14.2,0.3l0,-15.3c0,-8.4 0.7,-26.1 1.5,-39.3c0.8,-13.2 1.5,-24.8 1.5,-25.8c0,-1.5 -1.3,-1.7 -14,-1.7l-14,0l0,8.9c0,4.8 -0.3,11.5 -0.6,14.7l-0.6,5.9l-14.6,-0.3l-14.5,-0.3l0.7,-14.5l0.6,-14.4l-13.8,0l-13.9,0l-0.7,18.7z"/>
  <path fill="#002236" id="svg_6" d="m668.70001,93.7c-0.4,0.3 -0.7,4 -0.7,8.2c0,4.2 -0.7,18.8 -1.5,32.6c-0.8,13.7 -1.5,25.6 -1.5,26.3c0,1 2.5,1.2 10.8,1l10.7,-0.3l0.7,-17c0.4,-9.4 1.2,-24.4 1.7,-33.4c0.6,-9 0.8,-16.7 0.5,-17.2c-0.6,-1 -19.7,-1.2 -20.7,-0.2z"/>
  <path fill="#002236" id="svg_7" d="m355.90001,109.7c-1.5,0.2 -5.1,1.9 -8,3.6c-4.5,2.7 -5.9,4.3 -8.8,9.9c-3,5.9 -3.4,7.7 -3.4,14c0,8.8 2.3,14.9 7.5,19.4c5.5,4.9 9.7,5.9 23.8,5.9c17.7,0 17.4,0.1 18.8,-8.7c0.6,-4 0.9,-7.4 0.7,-7.6c-0.2,-0.3 -4.2,0.3 -8.9,1.2c-5,1 -9.9,1.4 -12,1c-4.8,-0.8 -8.6,-4 -8.6,-6.9l0,-2.5l16.8,-0.2l16.7,-0.3l0.3,-6c0.9,-17.4 -12.7,-26.2 -34.9,-22.8zm12.9,13.9c1.5,1 2.2,2.4 2,3.7c-0.3,1.9 -1,2.2 -5.8,2.3c-7.8,0 -8.2,-0.2 -6.5,-3.6c2.2,-4.3 6.3,-5.2 10.3,-2.4z"/>
  <path fill="#002236" id="svg_8" d="m411.80001,110.2c-4.7,1.3 -11.3,7 -14,12.2c-3,5.7 -3.7,18.5 -1.3,25.5c2.1,6.3 8.5,12.4 15,14c7.1,1.8 22.9,1 25.2,-1.2c0.7,-0.8 2.7,-14.6 2.1,-15.2c-0.2,-0.3 -3,0 -6.1,0.6c-11.3,2.3 -17.3,-1.7 -16.4,-11c0.7,-6.7 4.2,-9.6 11.5,-9.6c3.1,0 7.4,0.4 9.6,0.8l3.8,0.8l-0.7,-7.8c-0.4,-4.3 -0.8,-8 -1,-8.1c-2,-2.1 -21.1,-2.8 -27.7,-1z"/>
  <path fill="#002236" id="svg_9" d="m461.20001,110.5c-4.1,0.7 -7.5,1.5 -7.6,1.7c-0.6,0.6 -2.2,12.8 -1.8,13.2c0.2,0.3 2.1,-0.1 4.1,-0.9c6.4,-2.2 17.9,-3.7 20.1,-2.5c2.2,1.2 2.6,3.5 0.9,4.5c-0.6,0.4 -5.3,1.8 -10.6,3.1c-12.4,3 -17.5,6 -20.3,11.9c-2.5,5.1 -2.2,9 1,14.2c2.9,4.8 6.3,6.5 14,7.1c10.5,0.7 11.3,0.3 13.2,-6.8l1.6,-6.1l-3.6,0.6c-2.5,0.4 -4.3,0.1 -5.7,-0.9c-3,-2.2 -1,-4.6 6,-7.3l5.8,-2.2l-0.6,10.9l-0.6,11l10.3,0l10.3,0l0.6,-9.3c2,-28.5 1.9,-33 -0.1,-36.3c-3.2,-4.9 -8.2,-6.8 -19.7,-7.1c-5.5,-0.1 -13.3,0.4 -17.3,1.2z"/>
  <path fill="#002236" id="svg_10" d="m623.80001,110c-9.1,2.3 -15.7,9.5 -18.4,20.2c-3.5,13.6 2.6,26.8 14.3,30.9c4.9,1.8 28.9,1.9 31.8,0.2c1.5,-0.8 2.3,-3 3.1,-8c0.7,-3.7 1,-7 0.8,-7.2c-0.2,-0.2 -3.2,0.2 -6.6,1c-13.6,2.9 -21.9,0.9 -22.6,-5.4l-0.3,-2.7l16.8,-0.2l16.8,-0.3l0.3,-5.5c0.6,-10 -3.1,-17.1 -11.2,-21.2c-4.6,-2.4 -18.5,-3.4 -24.8,-1.8zm14,13.6c1.5,1 2.2,2.4 2,3.7c-0.2,1.8 -1,2.1 -3.8,2.1c-9.9,-0.3 -9.8,-0.3 -9.3,-2.4c1.2,-4.5 7,-6.3 11.1,-3.4z"/>
  <path fill="#002236" id="svg_11" d="m706.00001,110.3l-7.5,1.2l-0.7,16.5c-0.4,9.1 -1.2,23.7 -1.7,32.5c-0.6,8.8 -1.1,18 -1.1,20.3l0,4.2l10.5,0l10.5,0l0,-4.3c0,-2.4 0.3,-8.5 0.6,-13.5l0.7,-9.1l4,2.1c8.9,4.5 21.2,3.2 26.9,-3c5.6,-5.8 7.3,-10.9 7.3,-21.2c0,-7.8 -0.4,-10.2 -2.2,-13.5c-2.5,-4.7 -6.5,-8.6 -11.3,-11.1c-4.4,-2.2 -25,-2.9 -36,-1.1zm26.7,17.3c2.3,2.3 2.5,3.1 2.1,8.5c-0.5,6.9 -3.4,10.9 -7.9,10.9c-6.6,0 -8.9,-3.6 -8.9,-13.9c0,-7.8 0.1,-7.9 7.3,-8c3.9,-0.1 5.3,0.4 7.4,2.5z"/>
  <path fill="#002236" id="svg_12" d="m780.90001,109.6c-1.5,0.3 -5.1,1.9 -8,3.7c-4.6,2.7 -5.9,4.3 -8.8,10c-7.4,14.7 -3.2,30.6 9.6,36.8c5.7,2.7 21.7,3.8 30.4,2l5.6,-1.2l1.1,-7.2c0.6,-3.9 0.9,-7.3 0.8,-7.5c-0.2,-0.1 -4.4,0.5 -9.4,1.3c-6.8,1.2 -10.1,1.3 -12.8,0.6c-4.6,-1.3 -7.4,-3.8 -7.4,-6.7l0,-2.4l16.8,-0.2l16.7,-0.3l0.3,-5.5c0.9,-15 -7.3,-23 -23.8,-23.6c-4.7,-0.1 -9.7,0 -11.1,0.2zm13.3,14.1c1,0.9 1.8,2.4 1.8,3.5c0,1.4 -0.8,1.8 -4.2,1.9c-2.4,0 -5.2,0.2 -6.2,0.4c-3.1,0.6 -3.7,-0.4 -2.1,-3.5c2.2,-4.3 7.3,-5.4 10.7,-2.3z"/>
  <path fill="#002236" id="svg_13" d="m847.80001,111c-4.5,2.4 -4.8,2.4 -4.8,0.5c0,-1.2 -1.8,-1.5 -9.8,-1.5l-9.9,0l-0.6,19.2c-0.4,10.6 -1,22.3 -1.3,26l-0.7,6.8l10.5,0l10.5,0l0.6,-12.5c0.9,-18.2 3.4,-22.5 13,-22.5l4.8,0l-0.3,-8.8l-0.3,-8.7l-4,-0.3c-2.6,-0.2 -5.3,0.5 -7.7,1.8z"/>
 </g>
</svg>