<svg width="769" height="138" xmlns="http://www.w3.org/2000/svg" version="1.0" preserveAspectRatio="xMidYMid meet">
 <g>
  <title>Layer 1</title>
  <g id="svg_14">
   <path d="m133.6002,36.4977c-1.1,15.6 -4.6,56.1 -5.5,63.8c-0.5,3.8 -0.7,7.3 -0.4,7.7c0.2,0.5 5.3,0.8 11.3,0.8l10.8,0l0.6,-6.8c0.3,-3.7 0.8,-12.1 1.1,-18.7c0.3,-6.6 0.8,-14.7 1.2,-18c0.7,-7.2 0.5,-7.8 6.3,18c2.3,9.9 4.6,19.7 5.1,21.8l1,3.8l11.6,-0.3l11.6,-0.3l5.4,-16c2.9,-8.8 6.6,-21 8.1,-27l2.7,-11l0.3,6.5c0.1,3.6 -0.1,15.5 -0.6,26.5c-0.5,11 -0.7,20.3 -0.5,20.7c0.2,0.5 5.5,0.8 11.7,0.8l11.4,0l0.6,-19.8c0.3,-10.8 0.9,-29.3 1.2,-41l0.6,-21.2l-17.4,0l-17.4,0l-2.6,7.7c-1.4,4.3 -4.5,13.2 -6.7,19.7c-2.3,6.6 -4.4,13.7 -4.7,15.8c-0.8,5 -2,4 -2.6,-2.1c-0.3,-2.7 -2.5,-13 -4.9,-23l-4.4,-18.1l-17.1,0l-17.2,0l-0.6,9.7z" id="svg_4" fill="#caebff"/>
   <path d="m413.60021,45.4977c-0.8,21.5 -2.3,49.1 -3.2,57.6l-0.6,5.8l14.3,-0.3l14.4,-0.3l0.5,-16l0.5,-16l14.5,0l14.5,0l0,7.5c0,4.1 -0.2,11.3 -0.5,16l-0.5,8.5l14.3,0.3l14.2,0.3l0,-15.3c0,-8.4 0.7,-26.1 1.5,-39.3c0.8,-13.2 1.5,-24.8 1.5,-25.8c0,-1.5 -1.3,-1.7 -14,-1.7l-14,0l0,8.9c0,4.8 -0.3,11.5 -0.6,14.7l-0.6,5.9l-14.6,-0.3l-14.5,-0.3l0.7,-14.5l0.6,-14.4l-13.8,0l-13.9,0l-0.7,18.7z" id="svg_5" fill="#caebff"/>
   <path d="m569.70021,40.4977c-0.4,0.3 -0.7,4 -0.7,8.2c0,4.2 -0.7,18.8 -1.5,32.6c-0.8,13.7 -1.5,25.6 -1.5,26.3c0,1 2.5,1.2 10.8,1l10.7,-0.3l0.7,-17c0.4,-9.4 1.2,-24.4 1.7,-33.4c0.6,-9 0.8,-16.7 0.5,-17.2c-0.6,-1 -19.7,-1.2 -20.7,-0.2z" id="svg_6" fill="#caebff"/>
   <path d="m256.90021,56.4977c-1.5,0.2 -5.1,1.9 -8,3.6c-4.5,2.7 -5.9,4.3 -8.8,9.9c-3,5.9 -3.4,7.7 -3.4,14c0,8.8 2.3,14.9 7.5,19.4c5.5,4.9 9.7,5.9 23.8,5.9c17.7,0 17.4,0.1 18.8,-8.7c0.6,-4 0.9,-7.4 0.7,-7.6c-0.2,-0.3 -4.2,0.3 -8.9,1.2c-5,1 -9.9,1.4 -12,1c-4.8,-0.8 -8.6,-4 -8.6,-6.9l0,-2.5l16.8,-0.2l16.7,-0.3l0.3,-6c0.9,-17.4 -12.7,-26.2 -34.9,-22.8zm12.9,13.9c1.5,1 2.2,2.4 2,3.7c-0.3,1.9 -1,2.2 -5.8,2.3c-7.8,0 -8.2,-0.2 -6.5,-3.6c2.2,-4.3 6.3,-5.2 10.3,-2.4z" id="svg_7" fill="#caebff"/>
   <path d="m312.80021,56.9977c-4.7,1.3 -11.3,7 -14,12.2c-3,5.7 -3.7,18.5 -1.3,25.5c2.1,6.3 8.5,12.4 15,14c7.1,1.8 22.9,1 25.2,-1.2c0.7,-0.8 2.7,-14.6 2.1,-15.2c-0.2,-0.3 -3,0 -6.1,0.6c-11.3,2.3 -17.3,-1.7 -16.4,-11c0.7,-6.7 4.2,-9.6 11.5,-9.6c3.1,0 7.4,0.4 9.6,0.8l3.8,0.8l-0.7,-7.8c-0.4,-4.3 -0.8,-8 -1,-8.1c-2,-2.1 -21.1,-2.8 -27.7,-1z" id="svg_8" fill="#caebff"/>
   <path d="m362.20021,57.2977c-4.1,0.7 -7.5,1.5 -7.6,1.7c-0.6,0.6 -2.2,12.8 -1.8,13.2c0.2,0.3 2.1,-0.1 4.1,-0.9c6.4,-2.2 17.9,-3.7 20.1,-2.5c2.2,1.2 2.6,3.5 0.9,4.5c-0.6,0.4 -5.3,1.8 -10.6,3.1c-12.4,3 -17.5,6 -20.3,11.9c-2.5,5.1 -2.2,9 1,14.2c2.9,4.8 6.3,6.5 14,7.1c10.5,0.7 11.3,0.3 13.2,-6.8l1.6,-6.1l-3.6,0.6c-2.5,0.4 -4.3,0.1 -5.7,-0.9c-3,-2.2 -1,-4.6 6,-7.3l5.8,-2.2l-0.6,10.9l-0.6,11l10.3,0l10.3,0l0.6,-9.3c2,-28.5 1.9,-33 -0.1,-36.3c-3.2,-4.9 -8.2,-6.8 -19.7,-7.1c-5.5,-0.1 -13.3,0.4 -17.3,1.2z" id="svg_9" fill="#caebff"/>
   <path d="m524.80021,56.7977c-9.1,2.3 -15.7,9.5 -18.4,20.2c-3.5,13.6 2.6,26.8 14.3,30.9c4.9,1.8 28.9,1.9 31.8,0.2c1.5,-0.8 2.3,-3 3.1,-8c0.7,-3.7 1,-7 0.8,-7.2c-0.2,-0.2 -3.2,0.2 -6.6,1c-13.6,2.9 -21.9,0.9 -22.6,-5.4l-0.3,-2.7l16.8,-0.2l16.8,-0.3l0.3,-5.5c0.6,-10 -3.1,-17.1 -11.2,-21.2c-4.6,-2.4 -18.5,-3.4 -24.8,-1.8zm14,13.6c1.5,1 2.2,2.4 2,3.7c-0.2,1.8 -1,2.1 -3.8,2.1c-9.9,-0.3 -9.8,-0.3 -9.3,-2.4c1.2,-4.5 7,-6.3 11.1,-3.4z" id="svg_10" fill="#caebff"/>
   <path d="m607.00021,57.0977l-7.5,1.2l-0.7,16.5c-0.4,9.1 -1.2,23.7 -1.7,32.5c-0.6,8.8 -1.1,18 -1.1,20.3l0,4.2l10.5,0l10.5,0l0,-4.3c0,-2.4 0.3,-8.5 0.6,-13.5l0.7,-9.1l4,2.1c8.9,4.5 21.2,3.2 26.9,-3c5.6,-5.8 7.3,-10.9 7.3,-21.2c0,-7.8 -0.4,-10.2 -2.2,-13.5c-2.5,-4.7 -6.5,-8.6 -11.3,-11.1c-4.4,-2.2 -25,-2.9 -36,-1.1zm26.7,17.3c2.3,2.3 2.5,3.1 2.1,8.5c-0.5,6.9 -3.4,10.9 -7.9,10.9c-6.6,0 -8.9,-3.6 -8.9,-13.9c0,-7.8 0.1,-7.9 7.3,-8c3.9,-0.1 5.3,0.4 7.4,2.5z" id="svg_11" fill="#caebff"/>
   <path d="m681.90021,56.3977c-1.5,0.3 -5.1,1.9 -8,3.7c-4.6,2.7 -5.9,4.3 -8.8,10c-7.4,14.7 -3.2,30.6 9.6,36.8c5.7,2.7 21.7,3.8 30.4,2l5.6,-1.2l1.1,-7.2c0.6,-3.9 0.9,-7.3 0.8,-7.5c-0.2,-0.1 -4.4,0.5 -9.4,1.3c-6.8,1.2 -10.1,1.3 -12.8,0.6c-4.6,-1.3 -7.4,-3.8 -7.4,-6.7l0,-2.4l16.8,-0.2l16.7,-0.3l0.3,-5.5c0.9,-15 -7.3,-23 -23.8,-23.6c-4.7,-0.1 -9.7,0 -11.1,0.2zm13.3,14.1c1,0.9 1.8,2.4 1.8,3.5c0,1.4 -0.8,1.8 -4.2,1.9c-2.4,0 -5.2,0.2 -6.2,0.4c-3.1,0.6 -3.7,-0.4 -2.1,-3.5c2.2,-4.3 7.3,-5.4 10.7,-2.3z" id="svg_12" fill="#caebff"/>
   <path d="m748.80021,57.7977c-4.5,2.4 -4.8,2.4 -4.8,0.5c0,-1.2 -1.8,-1.5 -9.8,-1.5l-9.9,0l-0.6,19.2c-0.4,10.6 -1,22.3 -1.3,26l-0.7,6.8l10.5,0l10.5,0l0.6,-12.5c0.9,-18.2 3.4,-22.5 13,-22.5l4.8,0l-0.3,-8.8l-0.3,-8.7l-4,-0.3c-2.6,-0.2 -5.3,0.5 -7.7,1.8z" id="svg_13" fill="#caebff"/>
   <g stroke="null" stroke-width="0" id="svg_1">
    <path stroke="null" d="m65.08533,0.68768c-0.64303,0.35074 -2.10447,1.63681 -3.21516,2.86441l-2.04601,2.27984l-6.7226,-2.22138c-3.68282,-1.22761 -7.83329,-2.27984 -9.17781,-2.3383c-5.72883,-0.35074 -12.39297,3.1567 -15.90042,8.30095c-1.75372,2.51367 -2.63058,5.02734 -14.84818,43.02466c-3.03979,9.4701 -7.30718,22.73994 -9.4701,29.46254c-3.5659,10.93154 -3.91665,12.50989 -3.62436,15.60813c0.58457,6.43032 4.55968,12.74372 10.63925,16.83574c3.5659,2.45521 4.79351,2.86441 53.78082,18.58946c4.50122,1.40298 9.52856,3.03979 11.10691,3.5659c1.63681,0.52612 4.79351,0.93532 7.1318,0.93532c6.7226,-0.05846 13.036,-3.79973 15.84196,-9.41164c1.11069,-2.22138 1.81218,-4.32585 10.34696,-30.86552c2.45521,-7.71638 4.96888,-15.49122 5.55345,-17.24494c8.47633,-25.19515 10.75616,-33.14536 10.75616,-37.12046c-0.05846,-5.02734 -1.75372,-9.64547 -4.91042,-13.67904c-3.1567,-3.9751 -6.37186,-6.02111 -12.97755,-8.18404c-3.09824,-1.05223 -5.9042,-2.22138 -6.19649,-2.57213c-0.23383,-0.4092 -0.93532,-1.87064 -1.46144,-3.33207c-0.52612,-1.46144 -2.10447,-3.91665 -3.44899,-5.37808c-2.45521,-2.68904 -2.80596,-2.86441 -13.50366,-6.25494c-11.10691,-3.62436 -15.14047,-4.26739 -17.65414,-2.86441zm14.84818,10.75616c5.67037,1.81218 10.63925,3.5659 11.04845,3.9751c1.16915,1.11069 -3.1567,14.78973 -4.79351,15.31584c-1.69527,0.52612 -21.86307,-6.13803 -22.15536,-7.36563c-0.11691,-0.46766 0.70149,-3.79973 1.81218,-7.30718c1.81218,-5.96266 2.68904,-7.89175 3.50745,-7.89175c0.17537,0 4.91042,1.46144 10.58079,3.27362zm-27.70882,-0.52612c2.57213,0.8184 4.91042,1.69527 5.20271,1.92909c0.23383,0.29229 0.05846,1.75372 -0.4092,3.33207c-1.57835,4.96888 -1.63681,6.54723 -0.46766,9.17781c0.58457,1.28606 1.57835,2.86441 2.27984,3.44899c0.99378,0.93532 17.47877,6.78106 24.25983,8.6517c2.86441,0.75995 6.48877,-0.23383 8.59324,-2.27984c0.87686,-0.87686 2.16292,-3.39053 2.86441,-5.55345c0.70149,-2.16292 1.51989,-4.03356 1.69527,-4.15048c0.23383,-0.11691 3.21516,0.70149 6.7226,1.81218c7.01489,2.22138 9.52856,3.9751 11.45765,8.00867c0.70149,1.34452 1.22761,3.33207 1.22761,4.44276c0,1.81218 -7.1318,24.96132 -14.32207,46.47365c-0.46766,1.28606 -3.21516,9.82085 -6.13803,18.99866c-5.78728,17.88797 -6.37186,19.05712 -10.81462,21.10313c-4.79351,2.22138 -2.63058,2.7475 -53.48854,-13.79595c-6.25494,-2.04601 -12.74372,-4.15048 -14.43898,-4.67659c-4.15048,-1.28606 -7.42409,-4.85197 -8.35941,-9.11936l-0.70149,-3.1567l10.34696,-32.15158c17.47877,-54.42386 15.7835,-49.80572 19.40786,-52.31939c3.91665,-2.68904 7.30718,-2.7475 15.08201,-0.17537z" id="svg_2" fill="#aee1ff"/>
    <path stroke="null" d="m46.67124,32.07931c0,0.35074 1.22761,3.09824 2.7475,6.13803l2.7475,5.495l-2.45521,3.68282c-1.34452,1.98755 -2.45521,3.85819 -2.45521,4.15048c0,0.4092 -9.76239,0.05846 -10.52234,-0.4092c-0.17537,-0.11691 -1.46144,-2.57213 -2.92287,-5.495c-1.46144,-2.92287 -2.92287,-5.26117 -3.27362,-5.31962c-1.92909,-0.05846 -3.21516,8.18404 -1.98755,12.68526c1.22761,4.32585 3.21516,7.01489 7.1318,9.52856c3.03979,1.98755 4.61814,2.57213 8.59324,3.09824c0.93532,0.11691 1.34452,0.99378 15.84196,29.46254c6.19649,12.15914 11.74994,22.62302 12.39297,23.32451c2.86441,3.21516 8.41787,2.86441 11.51611,-0.70149c3.44899,-3.91665 3.44899,-4.03356 -11.34074,-33.20381c-7.24872,-14.26361 -13.15292,-26.42275 -13.15292,-26.89041c0,-0.52612 0.46766,-1.63681 0.99378,-2.45521c0.58457,-0.93532 1.05223,-3.1567 1.22761,-6.02111c0.23383,-4.09202 0.11691,-4.91042 -1.28606,-7.71638c-1.98755,-3.91665 -4.50122,-6.60569 -7.59946,-8.00867c-3.1567,-1.51989 -6.19649,-2.16292 -6.19649,-1.34452zm34.13913,80.26203c1.22761,1.75372 1.16915,2.51367 -0.35074,3.9751c-1.51989,1.40298 -2.98133,1.51989 -4.20893,0.23383c-1.11069,-1.05223 -1.22761,-3.79973 -0.23383,-4.79351c1.16915,-1.16915 3.79973,-0.8184 4.79351,0.58457z" id="svg_3" fill="#aee1ff"/>
   </g>
  </g>
 </g>

</svg>